<?xml version="1.0" standalone="no"?>
<!DOCTYPE svg PUBLIC "-//W3C//DTD SVG 20010904//EN"
 "http://www.w3.org/TR/2001/REC-SVG-20010904/DTD/svg10.dtd">
<svg version="1.0" xmlns="http://www.w3.org/2000/svg"
 width="259.000000pt" height="259.000000pt" viewBox="0 0 259.000000 259.000000"
 preserveAspectRatio="xMidYMid meet">
<metadata>
Created by potrace 1.11, written by Peter Selinger 2001-2013
</metadata>
<g transform="translate(0.000000,259.000000) scale(0.100000,-0.100000)"
fill="#000000" stroke="none">
<path d="M1332 2569 c-34 -13 -72 -40 -105 -73 l-52 -53 -39 29 c-178 130
-437 15 -472 -209 l-7 -43 -66 0 c-89 0 -150 -22 -209 -75 -91 -82 -129 -213
-98 -335 9 -36 13 -66 8 -68 -5 -1 -33 -17 -62 -35 -174 -105 -200 -371 -50
-516 33 -32 37 -41 26 -50 -7 -6 -26 -39 -42 -74 -55 -118 -35 -264 50 -364
32 -38 138 -93 179 -93 l30 0 -7 -48 c-30 -228 179 -415 386 -345 l57 19 16
-42 c22 -59 88 -130 149 -161 92 -48 231 -33 307 33 13 12 26 11 85 -1 460
-97 903 244 954 736 9 89 11 94 49 133 64 65 86 125 86 231 0 106 -23 163 -90
231 l-41 40 29 45 c64 101 73 226 22 333 -42 88 -144 165 -221 166 l-32 0 1
78 c3 134 -52 235 -161 300 -41 24 -57 27 -132 27 -61 0 -94 -5 -116 -17 l-31
-17 -22 54 c-61 148 -233 222 -379 164z m134 -520 c80 -19 205 -82 269 -136
54 -45 145 -149 145 -167 0 -3 -15 1 -32 11 -43 22 -183 29 -257 13 -31 -7
-85 -26 -121 -42 l-65 -29 38 -14 c35 -12 45 -11 110 11 59 21 87 25 152 22
111 -5 175 -36 269 -130 88 -89 229 -281 267 -365 69 -149 91 -309 65 -461
-32 -182 -105 -323 -231 -447 -133 -130 -279 -194 -465 -202 -129 -6 -210 11
-330 69 -69 33 -101 57 -170 127 -87 88 -203 248 -258 356 -86 172 -83 310 11
470 30 51 41 81 42 112 0 51 -8 46 -71 -48 -69 -104 -95 -178 -103 -288 l-6
-95 -26 40 c-43 64 -75 134 -101 214 -20 65 -23 95 -23 220 1 137 2 150 33
240 45 131 101 221 196 316 118 118 246 186 398 214 64 11 195 6 264 -11z"/>
<path d="M1322 1610 c-12 -5 -87 -62 -165 -126 -158 -129 -185 -165 -173 -230
11 -56 63 -104 113 -104 21 1 48 6 59 13 46 26 293 233 308 259 21 34 20 102
-1 139 -28 48 -90 69 -141 49z"/>
<path d="M1604 1510 c-14 -5 -23 -20 -26 -40 -4 -24 -2 -30 10 -25 107 41 199
18 287 -70 64 -63 105 -124 105 -155 0 -67 -67 -233 -133 -330 -142 -206 -391
-335 -623 -321 -15 1 -38 25 -75 78 -100 146 -120 236 -75 346 l24 57 -33 0
c-29 0 -34 -4 -51 -47 -13 -33 -19 -73 -19 -129 0 -74 3 -87 38 -155 115 -225
244 -325 437 -336 168 -10 315 50 450 186 133 133 190 267 190 442 0 148 -50
260 -179 401 -73 80 -134 108 -230 107 -42 0 -86 -4 -97 -9z"/>
</g>
</svg>
